<?xml version="1.0" encoding="utf-8"?>
<!-- Generator: Adobe Illustrator 22.1.0, SVG Export Plug-In . SVG Version: 6.00 Build 0)  -->
<svg version="1.1" id="Layer_1" xmlns="http://www.w3.org/2000/svg" xmlns:xlink="http://www.w3.org/1999/xlink" x="0px" y="0px"
	 viewBox="0 0 42.9 42.9" style="enable-background:new 0 0 42.9 42.9;" xml:space="preserve">
<style type="text/css">
	.st0{fill:#CF7C35;}
	.st1{fill:#FFFFFF;}
</style>
<rect class="st0" width="42.9" height="42.9"/>
<g>
	<path class="st1" d="M3.9,15h2.5c1.6,0,2.8,0.5,2.8,1.9c0,0.7-0.4,1.5-1.3,1.7v0c1.1,0.2,1.8,0.8,1.8,1.9c0,1.6-1.3,2.3-3,2.3H3.9
		V15z M6.3,18.2c1.1,0,1.6-0.4,1.6-1.2c0-0.7-0.5-1-1.5-1h-1v2.2H6.3z M6.5,21.7c1.2,0,1.8-0.4,1.8-1.3c0-0.8-0.6-1.2-1.8-1.2H5.3
		v2.5H6.5z"/>
	<path class="st1" d="M10.9,16.9h1.4v3.5c0,1,0.3,1.3,0.9,1.3c0.5,0,0.9-0.2,1.3-0.8v-4h1.4v5.9h-1.1l-0.1-0.9h0
		c-0.5,0.6-1.1,1-1.9,1c-1.3,0-1.8-0.9-1.8-2.3V16.9z"/>
	<path class="st1" d="M17.6,16.9h1.1l0.1,0.8h0c0.5-0.5,1.1-0.9,1.9-0.9c1.3,0,1.8,0.9,1.8,2.3v3.7h-1.4v-3.5c0-1-0.3-1.3-0.9-1.3
		c-0.5,0-0.9,0.3-1.3,0.7v4.1h-1.4V16.9z"/>
	<path class="st1" d="M3.9,29.4h2.5c1.6,0,2.8,0.5,2.8,1.9c0,0.7-0.4,1.5-1.3,1.7v0c1.1,0.2,1.8,0.8,1.8,1.9c0,1.6-1.3,2.3-3,2.3
		H3.9V29.4z M6.3,32.6c1.1,0,1.6-0.4,1.6-1.2c0-0.7-0.5-1-1.5-1h-1v2.2H6.3z M6.5,36.1c1.2,0,1.8-0.4,1.8-1.3c0-0.8-0.6-1.2-1.8-1.2
		H5.3v2.5H6.5z"/>
	<path class="st1" d="M10.9,31.3h1.4v3.5c0,1,0.3,1.3,0.9,1.3c0.5,0,0.9-0.2,1.3-0.8v-4h1.4v5.9h-1.1l-0.1-0.9h0
		c-0.5,0.6-1.1,1-1.9,1c-1.3,0-1.8-0.9-1.8-2.3V31.3z"/>
	<path class="st1" d="M17.6,31.3h1.1l0.1,0.8h0c0.5-0.5,1.1-0.9,1.9-0.9c1.3,0,1.8,0.9,1.8,2.3v3.7h-1.4v-3.5c0-1-0.3-1.3-0.9-1.3
		c-0.5,0-0.9,0.3-1.3,0.7v4.1h-1.4V31.3z"/>
</g>
</svg>
